<?xml version="1.0" encoding="UTF-8" standalone="no"?>
<svg
   version="1.1"
   viewBox="-5 -10 89.348 80.589996"
   id="svg2"
   sodipodi:docname="noun-wind-turbine-7836523.svg"
   width="89.348"
   height="80.589996"
   inkscape:version="1.4.2 (ebf0e940d0, 2025-05-08)"
   xmlns:inkscape="http://www.inkscape.org/namespaces/inkscape"
   xmlns:sodipodi="http://sodipodi.sourceforge.net/DTD/sodipodi-0.dtd"
   xmlns="http://www.w3.org/2000/svg"
   xmlns:svg="http://www.w3.org/2000/svg">
  <defs
     id="defs2" />
  <sodipodi:namedview
     id="namedview2"
     pagecolor="#ffffff"
     bordercolor="#000000"
     borderopacity="0.25"
     inkscape:showpageshadow="2"
     inkscape:pageopacity="0.0"
     inkscape:pagecheckerboard="0"
     inkscape:deskcolor="#d1d1d1"
     inkscape:zoom="5.0074074"
     inkscape:cx="-21.168639"
     inkscape:cy="64.10503"
     inkscape:window-width="1920"
     inkscape:window-height="919"
     inkscape:window-x="0"
     inkscape:window-y="48"
     inkscape:window-maximized="1"
     inkscape:current-layer="svg2" />
  <path
     d="M 64.2496,10.094 V -10 c -2.2695,0.25391 -3.9336,1.2578 -5.0742,2.8828 -1.5195,2.1758 -2.2031,5.4883 -2.2031,9.668 v 7.5391 c 1.0469,-0.67969 2.2969,-1.0742 3.6367,-1.0742 1.3398,0 2.5898,0.39453 3.6367,1.0742 z m -7.4141,3.5273 c -0.0078,0.01172 -0.01172,0.02344 -0.01953,0.03125 -0.33203,0.60938 -0.51953,1.3086 -0.51953,2.0547 0,1.1914 0.48437,2.2695 1.2617,3.0508 0.78125,0.78125 1.8594,1.2617 3.0508,1.2617 1.1914,0 2.2695,-0.48438 3.0508,-1.2617 0.78125,-0.78125 1.2617,-1.8594 1.2617,-3.0508 0,-0.74219 -0.1875,-1.4453 -0.51953,-2.0547 -0.0039,-0.0078 -0.01172,-0.01953 -0.01563,-0.02734 -0.19531,-0.35547 -0.44141,-0.67969 -0.72656,-0.96484 -0.78125,-0.78125 -1.8594,-1.2617 -3.0508,-1.2617 -1.1914,0 -2.2695,0.48438 -3.0508,1.2617 -0.28516,0.28516 -0.53125,0.60938 -0.72656,0.96484 z m -2.9023,1.7422 c -0.0078,0.11328 -0.0078,0.23047 -0.0078,0.34375 0,1.8477 0.75,3.5195 1.9609,4.7305 0.49219,0.49219 1.0625,0.91016 1.6914,1.2305 l -1.0312,0.59766 c -0.07031,0.03125 -0.14063,0.07031 -0.20313,0.11719 -1.7852,1.0352 -3.5742,2.0664 -5.3633,3.0938 l -0.0039,-0.0039 -0.02734,0.01953 c -3.457,1.9844 -6.5469,3.0273 -9.1289,2.8867 -2.0938,-0.11328 -3.8789,-1.0547 -5.2891,-2.9688 z m 9.7188,6.3047 c 0.62891,-0.32031 1.1953,-0.73828 1.6914,-1.2305 1.2109,-1.2109 1.9609,-2.8828 1.9609,-4.7305 0,-0.11719 -0.0039,-0.23438 -0.0078,-0.34766 l 6.4688,3.7344 v 0.0039 c 0.04297,0.02734 0.08984,0.05469 0.13672,0.07813 3.4609,2.0078 5.9141,4.1641 7.0859,6.4688 0.94922,1.875 1.0312,3.8945 0.07813,6.0742 l -16.195,-9.3516 c -0.05078,-0.03516 -0.10156,-0.0625 -0.15625,-0.08984 l -1.0547,-0.60938 z m 8.5195,11.426 c 0.54687,-0.36328 1.2812,-0.21094 1.6445,0.33594 0.36328,0.54688 0.21094,1.2812 -0.33594,1.6445 -0.4375,0.28906 -0.89453,0.57031 -1.3672,0.84375 -0.46875,0.26562 -0.94141,0.51562 -1.418,0.74609 -0.58984,0.28516 -1.3008,0.03516 -1.5859,-0.55469 -0.28516,-0.58984 -0.03516,-1.3008 0.55469,-1.5859 0.4375,-0.21094 0.86328,-0.43359 1.2773,-0.67187 0.41016,-0.23438 0.82031,-0.48828 1.2266,-0.75781 z m 3.3789,-31.969 c 1.8711,1.9141 3.3789,4.1914 4.4023,6.7148 0.98828,2.4258 1.5312,5.082 1.5312,7.8672 0,0.35938 -0.0039,0.66406 -0.01563,0.91406 -0.01172,0.25391 -0.03125,0.55859 -0.0625,0.91016 -0.05469,0.65234 0.42969,1.2305 1.082,1.2852 0.65234,0.05859 1.2305,-0.42969 1.2852,-1.082 0.02344,-0.28516 0.04687,-0.62109 0.0625,-1.0117 0.01563,-0.39061 0.02344,-0.73047 0.02344,-1.0156 0,-3.0977 -0.60547,-6.0547 -1.7109,-8.7617 -1.1445,-2.8086 -2.8203,-5.3438 -4.9062,-7.4766 -0.45703,-0.46875 -1.207,-0.48047 -1.6758,-0.02344 -0.46875,0.45703 -0.48047,1.207 -0.02344,1.6758 z m -5.8867,-4.2344 c -0.58984,-0.28516 -0.83594,-0.99219 -0.55469,-1.5859 0.28516,-0.58984 0.99219,-0.83594 1.5859,-0.55469 0.39844,0.19141 0.77734,0.38672 1.1445,0.58984 0.36328,0.19922 0.73828,0.42188 1.1172,0.66016 0.55469,0.34766 0.71875,1.082 0.37109,1.6367 -0.34766,0.55469 -1.082,0.71875 -1.6367,0.37109 -0.3125,-0.19531 -0.64453,-0.39063 -0.99609,-0.58594 -0.34766,-0.19141 -0.69141,-0.37109 -1.0312,-0.53516 z m -28.367,10.883 c -0.25,0.60547 -0.94141,0.89453 -1.5469,0.64453 -0.60547,-0.25 -0.89453,-0.94141 -0.64453,-1.5469 1.0898,-2.6523 2.6562,-5.0625 4.5938,-7.1133 1.9414,-2.0586 4.2578,-3.7656 6.8359,-5.0078 0.58984,-0.28516 1.3008,-0.03516 1.5859,0.55469 0.28516,0.58984 0.03516,1.3008 -0.55469,1.5859 -2.3164,1.1172 -4.3945,2.6484 -6.1406,4.4961 -1.7422,1.8477 -3.1484,4.0078 -4.1289,6.3867 z m -1.5156,6.6172 c 0.01953,-0.32812 0.05078,-0.66406 0.08594,-1.0078 0.03906,-0.35938 0.08594,-0.69531 0.13281,-1.0039 0.10156,-0.64453 -0.33984,-1.2539 -0.98437,-1.3555 -0.64453,-0.10156 -1.2539,0.33984 -1.3555,0.98438 -0.0625,0.39453 -0.11328,0.76562 -0.15234,1.1172 -0.03906,0.36328 -0.07422,0.74219 -0.09766,1.1289 -0.03906,0.65234 0.46094,1.2148 1.1133,1.2539 0.65234,0.03906 1.2148,-0.46094 1.2539,-1.1133 z m 11.781,20.133 c 0.58984,0.28516 0.83594,0.99219 0.55469,1.5859 -0.28516,0.58984 -0.99219,0.83594 -1.5859,0.55469 -0.47656,-0.23047 -0.94922,-0.48047 -1.418,-0.74609 -0.47266,-0.26953 -0.92969,-0.55078 -1.3672,-0.84375 -0.54688,-0.36328 -0.69531,-1.0977 -0.33594,-1.6445 0.36328,-0.54687 1.0977,-0.69531 1.6445,-0.33594 0.40625,0.27344 0.81641,0.52344 1.2266,0.75781 0.41406,0.23437 0.83984,0.46094 1.2773,0.67187 z m -37.73,33.691 V 58.2775 H 8.9141 V 68.215 H 6.5352 V 57.09 c 0,-0.65625 0.53125,-1.1875 1.1875,-1.1875 h 7.2969 c 0.65625,0 1.1875,0.53125 1.1875,1.1875 v 11.125 h -2.3789 z m 52.379,0 -3.1602,-44.156 -2.4414,-1.4102 -2.4414,1.4102 -3.1602,44.156 H 32.4139 V 47.82 l 5.7227,2.3711 c 0.60547,0.25 1.2969,-0.03906 1.5469,-0.64453 0.25,-0.605468 -0.03906,-1.2969 -0.64453,-1.5469 l -21.082,-8.7305 c -0.30078,-0.125 -0.62109,-0.11328 -0.90234,0 l -21.082,8.7305 c -0.60547,0.25 -0.89453,0.94141 -0.64453,1.5469 0.25,0.60549 0.94141,0.89453 1.5469,0.64453 L 2.5977,47.82 V 68.215 H -3.8125 C -4.46875,68.215 -5,68.74625 -5,69.4025 c 0,0.65625 0.53125,1.1875 1.1875,1.1875 h 86.973 c 0.65625,0 1.1875,-0.53125 1.1875,-1.1875 0,-0.65625 -0.53125,-1.1875 -1.1875,-1.1875 H 66.2075 Z M 10.0201,29.07 c 0.65625,0 1.1875,0.53125 1.1875,1.1875 0,0.65625 -0.53125,1.1875 -1.1875,1.1875 H 7.7232 c -0.65625,0 -1.1875,-0.53125 -1.1875,-1.1875 0,-0.65625 0.53125,-1.1875 1.1875,-1.1875 z m 12.59,-3.8281 c -0.44922,0.47656 -1.1992,0.49609 -1.6719,0.04688 -0.47266,-0.44922 -0.49609,-1.1992 -0.04687,-1.6719 0.4375,-0.46094 0.95703,-0.83203 1.5352,-1.0781 0.56641,-0.24219 1.1836,-0.37891 1.8359,-0.37891 1.2812,0 2.4453,0.51953 3.2852,1.3594 0.83984,0.83984 1.3594,2.0039 1.3594,3.2852 0,1.2813 -0.51953,2.4453 -1.3594,3.2852 -0.83984,0.83984 -2.0039,1.3594 -3.2852,1.3594 h -9.1055 c -0.65625,0 -1.1875,-0.53125 -1.1875,-1.1875 0,-0.65625 0.53125,-1.1875 1.1875,-1.1875 h 9.1055 c 0.625,0 1.1914,-0.25391 1.6016,-0.66406 0.41016,-0.41016 0.66406,-0.97656 0.66406,-1.6016 0,-0.62504 -0.25391,-1.1914 -0.66406,-1.6016 -0.41015,-0.4102 -0.97656,-0.66406 -1.6016,-0.66406 -0.32031,0 -0.62109,0.06641 -0.89453,0.18359 -0.29297,0.125 -0.55078,0.30469 -0.75391,0.52344 z M 0.2511,18.57 c 0.65625,0 1.1875,0.53125 1.1875,1.1875 0,0.65625 -0.53125,1.1875 -1.1875,1.1875 h -2.5195 c -0.65625,0 -1.1875,-0.53125 -1.1875,-1.1875 0,-0.65625 0.53125,-1.1875 1.1875,-1.1875 z m 12.363,-3.8281 c -0.44922,0.47656 -1.1992,0.49609 -1.6719,0.04688 -0.47656,-0.44922 -0.49609,-1.1992 -0.04687,-1.6719 0.4375,-0.46094 0.95703,-0.83203 1.5352,-1.0781 0.56641,-0.24219 1.1836,-0.37891 1.8359,-0.37891 1.2812,0 2.4453,0.51953 3.2852,1.3594 0.8399,0.83987 1.3594,2.0039 1.3594,3.2852 0,1.2813 -0.51953,2.4453 -1.3594,3.2852 -0.83984,0.83984 -2.0039,1.3594 -3.2852,1.3594 h -8.8828 c -0.65625,0 -1.1875,-0.53125 -1.1875,-1.1875 0,-0.65625 0.53125,-1.1875 1.1875,-1.1875 h 8.8828 c 0.625,0 1.1914,-0.25391 1.6016,-0.66406 0.41016,-0.41016 0.66406,-0.97656 0.66406,-1.6016 0,-0.62504 -0.25391,-1.1914 -0.66406,-1.6016 -0.41015,-0.4102 -0.97656,-0.66406 -1.6016,-0.66406 -0.32031,0 -0.62109,0.06641 -0.89453,0.18359 -0.29297,0.125 -0.55078,0.30469 -0.75391,0.52344 z m -2.5,-10.742 c 0.65625,0 1.1875,0.53125 1.1875,1.1875 0,0.65625 -0.53125,1.1875 -1.1875,1.1875 H 7.7274 c -0.65625,0 -1.1875,-0.53125 -1.1875,-1.1875 0,-0.65625 0.53125,-1.1875 1.1875,-1.1875 z m 12.492,-3.8281 c -0.44922,0.47656 -1.1992,0.49609 -1.6719,0.04687 -0.47656,-0.44922 -0.49609,-1.1992 -0.04687,-1.6719 0.4375,-0.46094 0.95703,-0.83203 1.5352,-1.0781 0.56641,-0.24219 1.1836,-0.37891 1.8359,-0.37891 1.2812,0 2.4453,0.51953 3.2852,1.3594 0.83984,0.83984 1.3594,2.0039 1.3594,3.2852 0,1.2813 -0.51953,2.4453 -1.3594,3.2852 -0.83984,0.83984 -2.0039,1.3594 -3.2852,1.3594 h -9.0156 c -0.65625,0 -1.1875,-0.53125 -1.1875,-1.1875 0,-0.65625 0.53125,-1.1875 1.1875,-1.1875 h 9.0156 c 0.625,0 1.1914,-0.25391 1.6016,-0.66406 0.41016,-0.41016 0.66406,-0.97656 0.66406,-1.6016 0,-0.62504 -0.25391,-1.1914 -0.66406,-1.6016 -0.41016,-0.41016 -0.97656,-0.66406 -1.6016,-0.66406 -0.32031,0 -0.62109,0.06641 -0.89453,0.18359 -0.29297,0.125 -0.55078,0.30469 -0.75391,0.52344 z"
     fill-rule="evenodd"
     id="path1" />
</svg>
