<?xml version="1.0" encoding="UTF-8" standalone="no"?>
<svg
   version="1.1"
   x="0px"
   y="0px"
   viewBox="0 0 100 100"
   enable-background="new 0 0 100 100"
   xml:space="preserve"
   id="svg37"
   sodipodi:docname="noun-compass-12941.svg"
   width="100"
   height="100"
   inkscape:version="1.4.2 (ebf0e940d0, 2025-05-08)"
   xmlns:inkscape="http://www.inkscape.org/namespaces/inkscape"
   xmlns:sodipodi="http://sodipodi.sourceforge.net/DTD/sodipodi-0.dtd"
   xmlns="http://www.w3.org/2000/svg"
   xmlns:svg="http://www.w3.org/2000/svg"><defs
     id="defs37" /><sodipodi:namedview
     id="namedview37"
     pagecolor="#ffffff"
     bordercolor="#000000"
     borderopacity="0.25"
     inkscape:showpageshadow="2"
     inkscape:pageopacity="0.0"
     inkscape:pagecheckerboard="0"
     inkscape:deskcolor="#d1d1d1"
     showgrid="true"
     inkscape:zoom="2.704"
     inkscape:cx="-0.36982249"
     inkscape:cy="102.44083"
     inkscape:window-width="1920"
     inkscape:window-height="919"
     inkscape:window-x="0"
     inkscape:window-y="48"
     inkscape:window-maximized="1"
     inkscape:current-layer="svg37"><inkscape:grid
       id="grid37"
       units="px"
       originx="0"
       originy="0"
       spacingx="1"
       spacingy="1"
       empcolor="#0099e5"
       empopacity="0.30196078"
       color="#0099e5"
       opacity="0.14901961"
       empspacing="5"
       enabled="true"
       visible="true" /></sodipodi:namedview><g
     id="g37"><path
       fill-rule="evenodd"
       clip-rule="evenodd"
       d="M 50,0 C 22.386,0 0,22.385 0,50 0,77.613 22.386,100 50,100 77.614,100 100,77.613 100,50 100,22.385 77.614,0 50,0 Z m 33.375,82.065 -1.948,-1.947 -1.309,1.309 1.947,1.948 c -2.463,2.367 -5.179,4.473 -8.118,6.253 l -1.387,-2.402 -1.604,0.926 1.385,2.399 c -2.971,1.641 -6.144,2.957 -9.467,3.917 l -0.717,-2.673 -1.789,0.479 0.718,2.677 c -2.56,0.628 -5.201,1.04 -7.907,1.224 L 50,89.814 46.82,96.174 C 44.114,95.99 41.472,95.578 38.913,94.95 l 0.717,-2.677 -1.789,-0.479 -0.716,2.673 c -3.324,-0.96 -6.497,-2.276 -9.468,-3.917 l 1.385,-2.399 -1.604,-0.926 -1.386,2.402 c -2.938,-1.78 -5.655,-3.886 -8.118,-6.253 l 1.948,-1.948 -1.31,-1.309 -1.948,1.947 c -2.367,-2.463 -4.473,-5.18 -6.252,-8.118 l 2.402,-1.387 -0.926,-1.604 -2.4,1.386 C 7.808,69.369 6.491,66.197 5.531,62.872 L 8.203,62.156 7.724,60.367 5.049,61.084 C 4.421,58.525 4.008,55.885 3.824,53.179 l 6.36,-3.18 -6.361,-3.18 C 4.007,44.113 4.42,41.471 5.049,38.912 L 7.724,39.629 8.203,37.84 5.531,37.124 c 0.96,-3.325 2.277,-6.498 3.918,-9.469 l 2.399,1.385 0.926,-1.604 -2.402,-1.387 c 1.779,-2.938 3.884,-5.654 6.251,-8.117 l 1.949,1.949 1.31,-1.31 -1.949,-1.949 c 2.463,-2.367 5.18,-4.472 8.119,-6.251 l 1.386,2.402 1.604,-0.926 -1.385,-2.4 C 30.628,7.807 33.801,6.49 37.125,5.529 L 37.841,8.201 39.63,7.722 38.914,5.047 c 2.558,-0.628 5.2,-1.041 7.906,-1.225 l 3.18,6.36 3.18,-6.36 c 2.706,0.184 5.348,0.596 7.906,1.225 l -0.717,2.675 1.789,0.479 0.717,-2.672 c 3.323,0.961 6.496,2.278 9.467,3.918 l -1.385,2.4 1.604,0.926 1.387,-2.402 c 2.939,1.779 5.656,3.884 8.119,6.251 l -1.948,1.949 1.309,1.31 1.949,-1.949 c 2.366,2.463 4.472,5.179 6.251,8.118 l -2.401,1.386 0.926,1.604 2.398,-1.385 c 1.642,2.971 2.958,6.144 3.919,9.469 l -2.673,0.716 0.479,1.789 2.676,-0.717 c 0.628,2.559 1.04,5.201 1.224,7.907 L 89.814,50 l 6.36,3.18 c -0.184,2.706 -0.596,5.347 -1.224,7.905 l -2.676,-0.717 -0.479,1.789 2.673,0.716 c -0.961,3.325 -2.277,6.497 -3.918,9.469 l -2.399,-1.386 -0.926,1.604 2.402,1.387 c -1.779,2.939 -3.884,5.656 -6.252,8.118 z"
       id="path35" /><path
       id="circle36"
       d="m 70,20.5423 -13.065562,15.756666 -5.4049,10.903999 a 2.7780001,2.7780001 0 0 0 -3.535793,0.933919 2.7780001,2.7780001 0 0 0 0.421593,3.599671 L 46.59302,54.432304 47.432811,55 49.274818,52.275126 a 2.7780001,2.7780001 0 0 0 3.320794,-1.027393 2.7780001,2.7780001 0 0 0 -0.451196,-3.629113 l 8.103883,-9.079493 z" /></g></svg>
