<?xml version="1.0" encoding="UTF-8" standalone="no"?>
<svg
   version="1.1"
   viewBox="-5 -10 60.011299 38.941799"
   id="svg63"
   sodipodi:docname="noun-speedometer-7670204.svg"
   width="60.011299"
   height="38.941799"
   inkscape:version="1.4.2 (ebf0e940d0, 2025-05-08)"
   xmlns:inkscape="http://www.inkscape.org/namespaces/inkscape"
   xmlns:sodipodi="http://sodipodi.sourceforge.net/DTD/sodipodi-0.dtd"
   xmlns="http://www.w3.org/2000/svg"
   xmlns:svg="http://www.w3.org/2000/svg">
  <defs
     id="defs63" />
  <sodipodi:namedview
     id="namedview63"
     pagecolor="#ffffff"
     bordercolor="#000000"
     borderopacity="0.25"
     inkscape:showpageshadow="2"
     inkscape:pageopacity="0.0"
     inkscape:pagecheckerboard="0"
     inkscape:deskcolor="#d1d1d1"
     inkscape:zoom="5.0074074"
     inkscape:cx="7.7884615"
     inkscape:cy="42.936391"
     inkscape:window-width="1920"
     inkscape:window-height="919"
     inkscape:window-x="0"
     inkscape:window-y="48"
     inkscape:window-maximized="1"
     inkscape:current-layer="svg63" />
  <g
     id="g63"
     transform="translate(-25,-40.5274)">
    <path
       d="m 77.23,52.039 -4.5,1.4688 c 0.69922,2.2617 1.0508,4.6289 1.0508,7.0117 0,2.3789 -0.35156,4.7617 -1.0508,7.0195 l 5.9102,1.9219 c 0.91016,-2.8789 1.3711,-5.8789 1.3711,-8.9414 0,-3.0586 -0.46094,-6.0508 -1.3711,-8.9414 l -1.3984,0.46094 z"
       id="path1"
       style="fill:#334c50;fill-opacity:1" />
    <path
       d="M 78.422,50.922 C 76.4923,45.2111 72.7736,40.102 67.91,36.473 l -1.5,2.0586 -2.1602,2.9609 c 1.8984,1.4219 3.5703,3.1094 4.9609,5.0312 1.4102,1.9297 2.5195,4.0586 3.3008,6.3203 l 5.9102,-1.9297 z"
       id="path2"
       style="fill:#334c50;fill-opacity:1" />
    <path
       d="m 20,60.52 c 0,3.0508 0.46094,6.0586 1.3711,8.9492 l 5.9219,-1.9297 c -0.71094,-2.2617 -1.0586,-4.6289 -1.0586,-7.0195 0,-2.3906 0.35156,-4.75 1.0586,-7.0117 L 21.3711,51.5786 C 20.46094,54.4575 20,57.4692 20,60.52 Z"
       id="path3"
       style="fill:#334c50;fill-opacity:1" />
    <path
       d="m 21.578,50.922 5.9219,1.9297 c 0.76953,-2.2617 1.8789,-4.3906 3.2891,-6.3203 1.3984,-1.9219 3.0703,-3.6094 4.9609,-5.0312 L 32.0897,36.469 c -4.8594,3.6289 -8.5781,8.7383 -10.512,14.449 z"
       id="path4"
       style="fill:#334c50;fill-opacity:1" />
    <path
       d="m 33.559,37.309 2.75,3.7891 c 3.9297,-2.7812 8.5195,-4.2812 13.34,-4.3398 v -6.2188 c -6.1406,0.07031 -12,1.9805 -16.988,5.5312 z"
       id="path5"
       style="fill:#334c50;fill-opacity:1" />
    <path
       d="m 50.352,36.75 c 4.8203,0.05859 9.4102,1.5703 13.34,4.3398 l 3.6484,-5.0312 c -4.9883,-3.5508 -10.859,-5.4609 -16.988,-5.5312 z"
       id="path6"
       style="fill:#334c50;fill-opacity:1" />
    <path
       d="m 68.305,58.426 2.8828,-0.30469 0.03516,0.34766 -2.8828,0.30469 z"
       id="path7"
       style="fill:#334c50;fill-opacity:1" />
    <path
       d="m 69.535,57.16 1.4688,-0.25 0.02344,0.13672 -1.4688,0.25 z"
       id="path8"
       style="fill:#334c50;fill-opacity:1" />
    <path
       d="m 69.297,55.93 1.4492,-0.33984 0.03125,0.13672 -1.4492,0.33984 z"
       id="path9"
       style="fill:#334c50;fill-opacity:1" />
    <path
       d="m 69.832,61.016 0.0039,-0.14062 1.4883,0.03125 -0.0039,0.14062 z"
       id="path10"
       style="fill:#334c50;fill-opacity:1" />
    <path
       d="m 69.805,59.629 1.4883,-0.0625 0.0078,0.14062 -1.4883,0.0625 z"
       id="path11"
       style="fill:#334c50;fill-opacity:1" />
    <path
       d="m 66.887,53.172 2.668,-1.1328 0.13672,0.32031 -2.668,1.1328 z"
       id="path12"
       style="fill:#334c50;fill-opacity:1" />
    <path
       d="m 67.695,51.598 1.332,-0.66406 0.0625,0.125 -1.332,0.66406 z"
       id="path13"
       style="fill:#334c50;fill-opacity:1" />
    <path
       d="m 67.105,50.5 1.2891,-0.75 0.07031,0.12109 -1.2891,0.75 z"
       id="path14"
       style="fill:#334c50;fill-opacity:1" />
    <path
       d="m 69.055,55.07 1.4336,-0.40625 0.03906,0.13281 -1.4336,0.40625 z"
       id="path15"
       style="fill:#334c50;fill-opacity:1" />
    <path
       d="m 68.68,53.875 1.4062,-0.49609 0.04687,0.13281 -1.4062,0.49609 z"
       id="path16"
       style="fill:#334c50;fill-opacity:1" />
    <path
       d="m 64,48.562 2.2227,-1.8633 0.22656,0.26953 -2.2227,1.8633 z"
       id="path17"
       style="fill:#334c50;fill-opacity:1" />
    <path
       d="m 64.32,46.797 1.0781,-1.0273 0.09766,0.10156 -1.0781,1.0273 z"
       id="path18"
       style="fill:#334c50;fill-opacity:1" />
    <path
       d="m 63.43,45.938 1.0117,-1.0938 0.10156,0.09375 -1.0117,1.0938 z"
       id="path19"
       style="fill:#334c50;fill-opacity:1" />
    <path
       d="m 66.637,49.73 1.2539,-0.80859 0.07422,0.11719 -1.2539,0.80859 z"
       id="path20"
       style="fill:#334c50;fill-opacity:1" />
    <path
       d="m 65.922,48.707 1.1992,-0.88281 0.08203,0.11328 -1.1992,0.88281 z"
       id="path21"
       style="fill:#334c50;fill-opacity:1" />
    <path
       d="m 59.887,44.996 1.5781,-2.4336 0.29297,0.19141 -1.5781,2.4336 z"
       id="path22"
       style="fill:#334c50;fill-opacity:1" />
    <path
       d="m 59.676,43.223 0.73047,-1.2969 0.12109,0.07031 -0.73047,1.2969 z"
       id="path23"
       style="fill:#334c50;fill-opacity:1" />
    <path
       d="m 58.57,42.648 0.64844,-1.3398 0.125,0.0625 -0.64844,1.3398 z"
       id="path24"
       style="fill:#334c50;fill-opacity:1" />
    <path
       d="m 62.746,45.336 0.96094,-1.1367 0.10547,0.08984 -0.96094,1.1367 z"
       id="path25"
       style="fill:#334c50;fill-opacity:1" />
    <path
       d="m 61.766,44.578 0.88672,-1.1953 0.11328,0.08203 -0.88672,1.1953 z"
       id="path26"
       style="fill:#334c50;fill-opacity:1" />
    <path
       d="m 54.914,42.777 0.80078,-2.7891 0.33594,0.09766 -0.80078,2.7891 z"
       id="path27"
       style="fill:#334c50;fill-opacity:1" />
    <path
       d="m 54.191,41.148 0.32031,-1.457 0.13672,0.03125 -0.32031,1.457 z"
       id="path28"
       style="fill:#334c50;fill-opacity:1" />
    <path
       d="m 52.965,40.926 0.22656,-1.4727 0.13672,0.01953 -0.22656,1.4727 z"
       id="path29"
       style="fill:#334c50;fill-opacity:1" />
    <path
       d="m 57.75,42.285 0.58594,-1.3711 0.12891,0.05469 -0.58594,1.3711 z"
       id="path30"
       style="fill:#334c50;fill-opacity:1" />
    <path
       d="m 56.586,41.824 0.5,-1.4023 0.13281,0.04687 -0.5,1.4023 z"
       id="path31"
       style="fill:#334c50;fill-opacity:1" />
    <path
       d="m 49.457,39.219 0.35156,-0.0078 0.05078,2.8984 -0.35156,0.0078 z"
       id="path32"
       style="fill:#334c50;fill-opacity:1" />
    <path
       d="m 48.223,39.293 0.14062,-0.01172 0.12109,1.4844 -0.14062,0.01172 z"
       id="path33"
       style="fill:#334c50;fill-opacity:1" />
    <path
       d="m 46.898,39.441 0.13672,-0.01953 0.21094,1.4766 -0.13672,0.01953 z"
       id="path34"
       style="fill:#334c50;fill-opacity:1" />
    <path
       d="m 52.078,40.812 0.16016,-1.4805 0.14062,0.01563 -0.16016,1.4805 z"
       id="path35"
       style="fill:#334c50;fill-opacity:1" />
    <path
       d="m 50.828,40.727 0.06641,-1.4883 0.14062,0.0078 -0.06641,1.4883 z"
       id="path36"
       style="fill:#334c50;fill-opacity:1" />
    <path
       d="m 43.246,40.32 0.33203,-0.10937 0.89453,2.7578 -0.33203,0.10938 z"
       id="path37"
       style="fill:#334c50;fill-opacity:1" />
    <path
       d="m 42.086,40.742 0.12891,-0.05078 0.54688,1.3867 -0.12891,0.05078 z"
       id="path38"
       style="fill:#334c50;fill-opacity:1" />
    <path
       d="m 40.871,41.266 0.125,-0.05859 0.63281,1.3477 -0.125,0.05859 z"
       id="path39"
       style="fill:#334c50;fill-opacity:1" />
    <path
       d="m 45.941,39.605 0.13672,-0.02734 0.28125,1.4648 -0.13672,0.02734 z"
       id="path40"
       style="fill:#334c50;fill-opacity:1" />
    <path
       d="m 44.633,39.902 0.13672,-0.03516 0.37109,1.4414 -0.13672,0.03516 z"
       id="path41"
       style="fill:#334c50;fill-opacity:1" />
    <path
       d="m 37.645,43.168 0.28516,-0.19922 1.6641,2.375 -0.28516,0.19922 z"
       id="path42"
       style="fill:#334c50;fill-opacity:1" />
    <path
       d="m 36.652,43.914 0.10938,-0.08594 0.92969,1.1641 -0.10938,0.08594 z"
       id="path43"
       style="fill:#334c50;fill-opacity:1" />
    <path
       d="m 35.641,44.781 0.10547,-0.09375 1,1.1055 -0.10547,0.09375 z"
       id="path44"
       style="fill:#334c50;fill-opacity:1" />
    <path
       d="m 40,41.715 0.125,-0.06641 0.69531,1.3164 -0.125,0.06641 z"
       id="path45"
       style="fill:#334c50;fill-opacity:1" />
    <path
       d="m 38.84,42.371 0.12109,-0.07422 0.77734,1.2734 -0.12109,0.07422 z"
       id="path46"
       style="fill:#334c50;fill-opacity:1" />
    <path
       d="m 33.102,47.539 0.21484,-0.27734 2.2852,1.7852 -0.21484,0.27734 z"
       id="path47"
       style="fill:#334c50;fill-opacity:1" />
    <path
       d="m 32.379,48.551 0.07813,-0.11719 1.2305,0.84375 -0.07813,0.11719 z"
       id="path48"
       style="fill:#334c50;fill-opacity:1" />
    <path
       d="m 31.656,49.668 0.07031,-0.12109 1.2812,0.76172 -0.07031,0.12109 z"
       id="path49"
       style="fill:#334c50;fill-opacity:1" />
    <path
       d="m 34.93,45.453 0.09766,-0.09766 1.0508,1.0586 -0.09766,0.09766 z"
       id="path50"
       style="fill:#334c50;fill-opacity:1" />
    <path
       d="m 34.016,46.441 0.09375,-0.10547 1.1133,0.98828 -0.09375,0.10547 z"
       id="path51"
       style="fill:#334c50;fill-opacity:1" />
    <path
       d="m 30.043,53.051 0.125,-0.32812 2.707,1.0391 -0.125,0.32812 z"
       id="path52"
       style="fill:#334c50;fill-opacity:1" />
    <path
       d="m 29.652,54.219 0.04297,-0.13281 1.4219,0.44531 -0.04297,0.13281 z"
       id="path53"
       style="fill:#334c50;fill-opacity:1" />
    <path
       d="m 29.285,55.508 0.03516,-0.13672 1.4453,0.35547 -0.03516,0.13672 z"
       id="path54"
       style="fill:#334c50;fill-opacity:1" />
    <path
       d="m 31.188,50.516 0.06641,-0.125 1.3125,0.70312 -0.06641,0.125 z"
       id="path55"
       style="fill:#334c50;fill-opacity:1" />
    <path
       d="m 30.59,51.727 0.05859,-0.12891 1.3555,0.62109 -0.05859,0.12891 z"
       id="path56"
       style="fill:#334c50;fill-opacity:1" />
    <path
       d="m 28.734,59.219 0.02344,-0.34766 2.8945,0.20312 -0.02344,0.34766 z"
       id="path57"
       style="fill:#334c50;fill-opacity:1" />
    <path
       d="m 28.695,60.445 v -0.14062 l 1.4883,0.01172 v 0.14062 z"
       id="path58"
       style="fill:#334c50;fill-opacity:1" />
    <path
       d="m 28.723,61.652 1.4883,-0.08203 0.0078,0.14063 -1.4883,0.08203 z"
       id="path59"
       style="fill:#334c50;fill-opacity:1" />
    <path
       d="m 29.086,56.453 0.02734,-0.13672 1.4609,0.28906 -0.02734,0.13672 z"
       id="path60"
       style="fill:#334c50;fill-opacity:1" />
    <path
       d="m 28.875,57.777 0.01953,-0.14062 1.4766,0.19531 -0.01953,0.14062 z"
       id="path61"
       style="fill:#334c50;fill-opacity:1" />
    <path
       d="m 48.57,47.852 v 10.469 c -0.71094,0.48047 -1.1484,1.2812 -1.1484,2.1406 0,1.4297 1.1602,2.5898 2.5898,2.5898 1.4297,0 2.5898,-1.1602 2.5898,-2.5898 0,-0.85938 -0.44141,-1.6602 -1.1484,-2.1406 V 47.852 c 0,-0.78906 -0.64062,-1.4297 -1.4414,-1.4297 -0.80078,0 -1.4297,0.64062 -1.4297,1.4297 z"
       id="path62"
       style="fill:#334c50;fill-opacity:1" />
  </g>
</svg>
